<?xml version="1.0" encoding="UTF-8"?>
<svg width="16px" height="16px" viewBox="0 0 16 16" version="1.1" xmlns="http://www.w3.org/2000/svg" xmlns:xlink="http://www.w3.org/1999/xlink">
    <!-- Generator: Sketch 49.3 (51167) - http://www.bohemiancoding.com/sketch -->
    <title>icon_search</title>
    <desc>Created with Sketch.</desc>
    <defs></defs>
    <g id="icon_search" stroke="none" stroke-width="1" fill="none" fill-rule="evenodd">
        <path d="M11.4227693,11.2905318 C11.4059127,11.2788718 11.3830797,11.2625685 11.3461604,11.2361662 C11.3715993,11.2708554 11.390362,11.2964454 11.4047533,11.31636 L14.9805673,14.9973647 C14.9899775,15 14.9908863,14.9996355 14.9950871,14.9955007 C15.001682,14.9890361 15.0018786,14.9740344 14.9942784,14.9661136 L11.4227693,11.2905318 Z M11.3548531,11.2206365 C11.3558097,11.2216238 11.3567605,11.2226023 11.3577055,11.223572 L11.3548531,11.2206365 Z M11.1354823,9.8644584 C11.8033074,8.91874337 12.166966,7.79738316 12.166966,6.61877343 C12.166966,3.51504686 9.66559321,1 6.58348302,1 C3.50140748,1 1,3.51506721 1,6.61877343 C1,9.72311322 3.50103233,12.2375284 6.58348302,12.2375284 C7.82171265,12.2375284 8.99576412,11.8277294 9.96536824,11.080988 L10.6472714,10.5558198 L11.1354823,9.8644584 Z M11.4735407,11.425551 L11.4770674,11.4320291 C11.4745367,11.426144 11.4699546,11.417496 11.4634229,11.4066572 C11.4664933,11.412326 11.4697865,11.4185061 11.4735407,11.425551 Z M6.58348302,13.2375284 C2.94757135,13.2375284 0,10.2742289 0,6.61877343 C0,2.96432828 2.94757135,0 6.58348302,0 C10.2194496,0 13.166966,2.96432828 13.166966,6.61877343 C13.166966,8.04474489 12.7149708,9.36132707 11.9523438,10.4412923 C11.9569767,10.4448997 11.9990012,10.4745756 12.0784172,10.5303202 L15.7119697,14.2697518 C16.102667,14.6724918 16.0947814,15.3178463 15.6951039,15.709627 C15.4983093,15.9035593 15.2421002,16 14.9869344,16 C14.7238484,16 14.4606873,15.8976003 14.2628694,15.6937192 L10.6671851,11.99226 L10.5810105,11.8803668 C10.3120224,12.0762055 10.0330617,12.2597959 9.74067727,12.4217557 C8.80254195,12.9410375 7.7286045,13.2375284 6.58348302,13.2375284 Z" fill="#DCDCDC" fill-rule="nonzero"></path>
    </g>
</svg>